<svg xmlns="http://www.w3.org/2000/svg" viewBox="0 0 362 519.48"><defs><style>.cls-1,.cls-2{fill:#fff;}.cls-3{fill:#00492b;}.cls-4{stroke:#fff;}.cls-4,.cls-2,.cls-5,.cls-6{stroke-miterlimit:10;}.cls-4,.cls-6{fill:none;}.cls-7{fill:#00853f;}.cls-8{fill:#777;}.cls-2,.cls-6{stroke:#999;stroke-width:.5px;}.cls-5{fill:#e7e6e6;stroke:#f28d21;stroke-width:.75px;}.cls-9{fill:#333;}.cls-10{fill:#e6e6e6;}.cls-11{fill:#999;}.cls-12{fill:#565555;}</style></defs><g id="Capa_3"><rect class="cls-10" x="-6.96" y="-3.56" width="372" height="526.56"/></g><g id="Capa_2"><g><path class="cls-3" d="M78.44,64.43h3.97c1.81,0,3.13,.26,3.94,.77s1.23,1.34,1.23,2.46c0,.76-.18,1.39-.54,1.88s-.83,.78-1.43,.88v.09c.81,.18,1.39,.52,1.75,1.01s.54,1.15,.54,1.97c0,1.16-.42,2.07-1.26,2.73s-1.98,.98-3.43,.98h-4.78v-12.77Zm2.71,5.06h1.57c.73,0,1.27-.11,1.59-.34s.49-.6,.49-1.13c0-.49-.18-.84-.54-1.05s-.92-.32-1.7-.32h-1.42v2.84Zm0,2.15v3.33h1.76c.75,0,1.3-.14,1.65-.43s.53-.72,.53-1.31c0-1.06-.76-1.59-2.27-1.59h-1.68Z"/><path class="cls-3" d="M96.79,77.2l-.93-3.04h-4.66l-.93,3.04h-2.92l4.51-12.82h3.31l4.52,12.82h-2.92Zm-1.57-5.31c-.86-2.75-1.34-4.31-1.45-4.67s-.18-.65-.23-.86c-.19,.75-.74,2.59-1.65,5.53h3.33Z"/><path class="cls-3" d="M111.17,77.2h-3.44l-5.56-9.66h-.08c.11,1.71,.17,2.92,.17,3.65v6.01h-2.42v-12.77h3.42l5.55,9.57h.06c-.09-1.66-.13-2.83-.13-3.52v-6.04h2.44v12.77Z"/><path class="cls-3" d="M115.6,72.3v4.9h-2.71v-12.77h3.72c1.74,0,3.02,.32,3.85,.95s1.25,1.59,1.25,2.88c0,.75-.21,1.42-.62,2s-1,1.04-1.76,1.38c1.92,2.87,3.17,4.73,3.76,5.56h-3l-3.05-4.9h-1.44Zm0-2.2h.87c.86,0,1.49-.14,1.9-.43s.61-.73,.61-1.35-.21-1.04-.62-1.29-1.06-.38-1.93-.38h-.82v3.45Z"/><path class="cls-3" d="M133.62,64.43v8.26c0,.94-.21,1.77-.63,2.48s-1.03,1.25-1.83,1.63-1.74,.57-2.83,.57c-1.64,0-2.92-.42-3.83-1.26s-1.36-1.99-1.36-3.45v-8.23h2.7v7.82c0,.98,.2,1.71,.59,2.17s1.05,.69,1.97,.69,1.53-.23,1.93-.69,.6-1.19,.6-2.18v-7.8h2.7Z"/><path class="cls-3" d="M137.97,72.3v4.9h-2.71v-12.77h3.72c1.74,0,3.02,.32,3.85,.95s1.25,1.59,1.25,2.88c0,.75-.21,1.42-.62,2s-1,1.04-1.76,1.38c1.92,2.87,3.17,4.73,3.76,5.56h-3l-3.05-4.9h-1.44Zm0-2.2h.87c.86,0,1.49-.14,1.9-.43s.61-.73,.61-1.35-.21-1.04-.62-1.29-1.06-.38-1.93-.38h-.82v3.45Z"/><path class="cls-3" d="M153.4,77.2l-.93-3.04h-4.66l-.93,3.04h-2.92l4.51-12.82h3.31l4.52,12.82h-2.92Zm-1.57-5.31c-.86-2.75-1.34-4.31-1.45-4.67s-.18-.65-.23-.86c-.19,.75-.74,2.59-1.65,5.53h3.33Z"/><path class="cls-3" d="M156.44,77.2v-12.77h2.71v10.53h5.18v2.24h-7.89Z"/></g><path class="cls-3" d="M91.31,117.22l-13.23-34.71h12.5l5.88,20.52c.02,.1,.06,.28,.12,.52,.06,.25,.12,.54,.18,.87,.06,.34,.12,.69,.17,1.07,.05,.38,.08,.73,.08,1.06h.21c0-1.06,.18-2.22,.55-3.46l6.16-20.58h12.47l-13.23,34.71h-11.85Z"/><rect class="cls-3" x="119.53" y="82.52" width="11.98" height="34.7"/><path class="cls-3" d="M159.76,81.9c1.04,0,.99-.06,1.93,.1l.64,.1v11.47c-.98-.25-2.33-.37-4.07-.37-2.61,0-4.51,.6-5.7,1.79-1.18,1.19-1.78,2.92-1.78,5.16v17.06h-11.98v-34.71h10.96l-.13,4.19h.67c1-1.84,2.05-2.62,3.96-3.54,1.53-.74,3.68-1.27,5.49-1.27Z"/><path class="cls-3" d="M184.18,108.37c1.61,0,3.54-.4,5.79-1.19v8.73c-1.61,.69-3.15,1.19-4.61,1.49s-3.17,.44-5.13,.44c-4.02,0-6.92-.99-8.7-2.96-1.78-1.97-2.67-5-2.67-9.08v-14.3h-4.2v-8.67l5.33,.03,.02-7.29h10.92v6.95h8.52v8.98h-8.52v13.51c0,2.25,1.08,3.37,3.25,3.37Z"/><path class="cls-3" d="M218.16,117.22l.02-4.32h-.7c-1,1.59-2.39,2.81-4.18,3.66s-3.89,1.27-6.29,1.27c-3.82,0-6.79-1.11-8.91-3.32-2.12-2.22-3.19-5.35-3.19-9.39v-22.61h11.98v18.96c0,2.27,.32,3.98,.96,5.15,.64,1.16,1.7,1.75,3.17,1.75,2.06,0,3.53-.81,4.41-2.44s1.32-4.36,1.32-8.22v-15.19h11.98v34.71h-10.56Z"/><path class="cls-3" d="M256.32,117.22l-.06-4.59h-.25c-1.61,2-3.26,3.37-4.93,4.1-1.67,.74-3.84,1.1-6.49,1.1-3.27,0-5.84-.98-7.72-2.94-1.88-1.96-2.82-4.72-2.82-8.27s1.29-6.45,3.86-8.26,6.3-2.82,11.18-3.05l5.79-.18v-.49c0-2.86-1.41-4.29-4.23-4.29-2.53,0-5.75,.86-9.65,2.57l-3.46-7.9c4.04-2.08,9.15-3.12,15.32-3.12,4.45,0,7.9,1.1,10.34,3.31,2.44,2.21,3.66,5.29,3.66,9.25v22.76h-10.54Zm-6.65-7.84c1.45,0,2.69-.46,3.72-1.38s1.55-2.11,1.55-3.58v-2.7l-2.76,.12c-3.94,.14-5.91,1.59-5.91,4.35,0,2.12,1.13,3.19,3.4,3.19Z"/><path class="cls-3" d="M283.92,117.22h-11.98v-47.66h11.98v47.66Z"/><rect class="cls-2" x="21.36" y="268.84" width="168.6" height="32.9" rx="2" ry="2"/><g/><g/><g><path class="cls-8" d="M136.63,369.39l-.21,1.89,1.91-.53,.12,.87-1.83,.15,1.19,1.56-.82,.45-.84-1.73-.77,1.73-.84-.45,1.16-1.56-1.81-.15,.14-.87,1.87,.53-.21-1.89h.93Z"/><path class="cls-8" d="M145.07,370.47c-.77,0-1.38,.26-1.82,.77-.45,.51-.67,1.21-.67,2.11s.21,1.62,.64,2.12,1.04,.75,1.84,.75c.49,0,1.05-.09,1.67-.26v.71c-.49,.18-1.08,.27-1.8,.27-1.03,0-1.83-.31-2.39-.94-.56-.63-.84-1.52-.84-2.67,0-.72,.13-1.35,.41-1.9,.27-.54,.66-.96,1.17-1.26s1.11-.44,1.8-.44c.73,0,1.38,.13,1.93,.4l-.35,.7c-.53-.25-1.06-.37-1.59-.37Z"/><path class="cls-8" d="M151.21,376.85l-.16-.75h-.04c-.26,.33-.52,.55-.78,.67-.26,.12-.59,.17-.98,.17-.52,0-.93-.13-1.22-.4-.29-.27-.44-.65-.44-1.15,0-1.06,.85-1.62,2.54-1.67l.89-.03v-.33c0-.41-.09-.72-.27-.91-.18-.2-.46-.29-.85-.29-.44,0-.93,.13-1.49,.4l-.24-.61c.26-.14,.54-.25,.85-.33s.62-.12,.93-.12c.63,0,1.09,.14,1.39,.42,.3,.28,.45,.72,.45,1.34v3.58h-.59Zm-1.8-.56c.5,0,.88-.14,1.17-.41,.28-.27,.42-.65,.42-1.14v-.47l-.79,.03c-.63,.02-1.09,.12-1.37,.29-.28,.17-.42,.45-.42,.81,0,.29,.09,.51,.26,.66,.17,.15,.42,.23,.73,.23Z"/><path class="cls-8" d="M159.96,376.85v-3.42c0-.42-.09-.73-.27-.94-.18-.21-.46-.31-.83-.31-.5,0-.86,.14-1.1,.43s-.35,.72-.35,1.31v2.93h-.8v-3.42c0-.42-.09-.73-.27-.94-.18-.21-.46-.31-.84-.31-.5,0-.86,.15-1.1,.45s-.35,.79-.35,1.47v2.76h-.8v-5.25h.65l.13,.72h.04c.15-.26,.36-.46,.63-.6,.27-.14,.58-.21,.92-.21,.82,0,1.36,.3,1.61,.89h.04c.16-.27,.38-.49,.68-.65s.64-.24,1.02-.24c.59,0,1.04,.15,1.33,.46,.3,.31,.44,.79,.44,1.46v3.43h-.8Z"/><path class="cls-8" d="M164.67,376.95c-.34,0-.65-.06-.94-.19-.28-.13-.52-.32-.71-.58h-.06c.04,.31,.06,.6,.06,.87v2.16h-.8v-7.61h.65l.11,.72h.04c.2-.29,.44-.5,.71-.62s.58-.19,.93-.19c.7,0,1.23,.24,1.61,.71,.38,.48,.57,1.14,.57,2s-.19,1.53-.58,2.01c-.39,.48-.92,.72-1.6,.72Zm-.12-4.77c-.54,0-.92,.15-1.16,.45s-.36,.77-.37,1.42v.18c0,.74,.12,1.27,.37,1.58,.25,.32,.64,.48,1.18,.48,.45,0,.81-.18,1.07-.55,.26-.37,.39-.87,.39-1.52s-.13-1.16-.39-1.51c-.26-.35-.62-.53-1.09-.53Z"/><path class="cls-8" d="M172.61,374.22c0,.86-.22,1.52-.65,2.01-.43,.48-1.03,.72-1.79,.72-.47,0-.89-.11-1.25-.33-.36-.22-.65-.54-.84-.95s-.3-.89-.3-1.45c0-.86,.21-1.52,.64-2,.43-.48,1.02-.72,1.78-.72s1.32,.24,1.75,.73c.43,.49,.65,1.15,.65,1.98Zm-4,0c0,.67,.13,1.18,.4,1.53,.27,.35,.66,.53,1.18,.53s.92-.17,1.19-.52c.27-.35,.41-.86,.41-1.54s-.14-1.17-.41-1.52c-.27-.35-.67-.52-1.2-.52s-.91,.17-1.18,.51c-.26,.34-.4,.85-.4,1.53Z"/><path class="cls-8" d="M177.23,375.42c0,.49-.18,.87-.55,1.13-.36,.26-.88,.4-1.53,.4-.7,0-1.24-.11-1.63-.33v-.74c.25,.13,.52,.23,.81,.3s.57,.11,.84,.11c.42,0,.73-.07,.96-.2s.34-.33,.34-.61c0-.2-.09-.38-.27-.52-.18-.15-.52-.32-1.04-.51-.49-.18-.84-.34-1.04-.48s-.36-.29-.46-.46c-.1-.17-.15-.38-.15-.62,0-.43,.17-.77,.52-1.01,.35-.25,.83-.37,1.43-.37,.57,0,1.12,.11,1.66,.34l-.28,.65c-.53-.22-1-.33-1.43-.33-.38,0-.66,.06-.85,.18-.19,.12-.29,.28-.29,.49,0,.14,.04,.26,.11,.36,.07,.1,.19,.19,.35,.28,.16,.09,.47,.22,.92,.39,.62,.23,1.04,.46,1.26,.69,.22,.23,.33,.52,.33,.87Z"/><path class="cls-8" d="M183.13,371.5c.23,0,.44,.02,.63,.06l-.11,.74c-.22-.05-.41-.07-.57-.07-.43,0-.79,.17-1.09,.52-.3,.34-.45,.77-.45,1.29v2.82h-.8v-5.25h.66l.09,.97h.04c.19-.34,.43-.61,.7-.79s.58-.28,.91-.28Z"/><path class="cls-8" d="M186.79,376.95c-.78,0-1.39-.24-1.84-.71-.45-.47-.67-1.13-.67-1.97s.21-1.52,.62-2.02c.42-.5,.98-.75,1.68-.75,.66,0,1.18,.22,1.56,.65,.38,.43,.58,1,.58,1.71v.5h-3.62c.02,.62,.17,1.08,.47,1.4,.29,.32,.71,.48,1.25,.48,.57,0,1.12-.12,1.68-.36v.71c-.28,.12-.55,.21-.8,.26-.25,.05-.55,.08-.91,.08Zm-.21-4.78c-.42,0-.76,.14-1.01,.41-.25,.27-.4,.65-.44,1.14h2.75c0-.5-.11-.89-.34-1.15-.22-.27-.54-.4-.96-.4Z"/><path class="cls-8" d="M191.78,376.95c-.68,0-1.21-.24-1.59-.71-.38-.48-.57-1.14-.57-1.99s.19-1.53,.57-2.01c.38-.48,.92-.72,1.6-.72,.72,0,1.27,.27,1.66,.81h.04l.12-.72h.63v7.61h-.79v-2.25c0-.32,.02-.59,.05-.81h-.06c-.37,.53-.92,.8-1.66,.8Zm.12-.67c.53,0,.92-.14,1.16-.43,.24-.28,.37-.76,.39-1.44v-.18c0-.74-.12-1.26-.37-1.59-.25-.32-.64-.48-1.18-.48-.47,0-.82,.18-1.07,.54-.25,.36-.37,.87-.37,1.54s.12,1.17,.37,1.51,.61,.52,1.08,.52Z"/><path class="cls-8" d="M196.51,371.6v3.41c0,.43,.1,.75,.29,.96,.2,.21,.5,.32,.92,.32,.55,0,.95-.15,1.21-.45,.25-.3,.38-.79,.38-1.47v-2.76h.79v5.25h-.66l-.12-.7h-.04c-.16,.26-.39,.46-.68,.59-.29,.14-.62,.21-.99,.21-.64,0-1.12-.15-1.44-.46-.32-.3-.48-.79-.48-1.46v-3.44h.8Z"/><path class="cls-8" d="M203.84,376.95c-.78,0-1.39-.24-1.84-.71s-.67-1.13-.67-1.97,.21-1.52,.62-2.02,.98-.75,1.68-.75c.66,0,1.18,.22,1.56,.65,.38,.43,.58,1,.58,1.71v.5h-3.62c.02,.62,.17,1.08,.47,1.4s.71,.48,1.25,.48c.57,0,1.12-.12,1.68-.36v.71c-.28,.12-.55,.21-.8,.26s-.55,.08-.91,.08Zm-.22-4.78c-.42,0-.76,.14-1.01,.41-.25,.27-.4,.65-.44,1.14h2.75c0-.5-.11-.89-.33-1.15-.22-.27-.54-.4-.96-.4Z"/><path class="cls-8" d="M209.35,371.5c.23,0,.44,.02,.63,.06l-.11,.74c-.22-.05-.41-.07-.58-.07-.42,0-.79,.17-1.09,.52-.3,.34-.45,.77-.45,1.29v2.82h-.8v-5.25h.66l.09,.97h.04c.2-.34,.43-.61,.71-.79,.27-.19,.58-.28,.91-.28Z"/><path class="cls-8" d="M210.73,370.18c0-.18,.04-.32,.13-.4,.09-.08,.2-.13,.33-.13s.24,.04,.33,.13,.14,.22,.14,.4-.05,.31-.14,.4-.2,.13-.33,.13-.25-.04-.33-.13c-.09-.09-.13-.22-.13-.4Zm.86,6.68h-.8v-5.25h.8v5.25Z"/><path class="cls-8" d="M216.69,376.15h-.04c-.37,.53-.92,.8-1.65,.8-.69,0-1.22-.23-1.6-.7s-.57-1.14-.57-2,.19-1.54,.57-2.02c.38-.48,.92-.72,1.6-.72s1.26,.26,1.64,.78h.06l-.03-.38-.02-.37v-2.14h.79v7.46h-.65l-.11-.7Zm-1.59,.13c.54,0,.94-.15,1.18-.44,.24-.29,.37-.77,.37-1.43v-.17c0-.75-.12-1.28-.37-1.59-.25-.32-.64-.48-1.19-.48-.47,0-.82,.18-1.07,.54-.25,.36-.37,.87-.37,1.54s.12,1.18,.37,1.52c.25,.34,.61,.51,1.08,.51Z"/><path class="cls-8" d="M223.49,374.22c0,.86-.22,1.52-.65,2.01-.43,.48-1.03,.72-1.79,.72-.47,0-.89-.11-1.25-.33-.36-.22-.64-.54-.84-.95s-.3-.89-.3-1.45c0-.86,.21-1.52,.64-2s1.02-.72,1.78-.72,1.32,.24,1.75,.73c.43,.49,.65,1.15,.65,1.98Zm-4,0c0,.67,.13,1.18,.4,1.53s.66,.53,1.18,.53,.92-.17,1.19-.52c.27-.35,.41-.86,.41-1.54s-.13-1.17-.41-1.52c-.27-.35-.67-.52-1.2-.52s-.91,.17-1.18,.51c-.27,.34-.4,.85-.4,1.53Z"/><path class="cls-8" d="M228.11,375.42c0,.49-.18,.87-.55,1.13-.36,.26-.88,.4-1.53,.4-.7,0-1.24-.11-1.63-.33v-.74c.25,.13,.52,.23,.81,.3s.57,.11,.84,.11c.42,0,.73-.07,.96-.2s.34-.33,.34-.61c0-.2-.09-.38-.27-.52-.18-.15-.52-.32-1.04-.51-.49-.18-.84-.34-1.04-.48s-.36-.29-.46-.46c-.1-.17-.15-.38-.15-.62,0-.43,.17-.77,.52-1.01,.35-.25,.83-.37,1.43-.37,.57,0,1.12,.11,1.66,.34l-.28,.65c-.53-.22-1-.33-1.43-.33-.38,0-.66,.06-.85,.18-.19,.12-.29,.28-.29,.49,0,.14,.04,.26,.11,.36,.07,.1,.19,.19,.35,.28,.16,.09,.47,.22,.92,.39,.62,.23,1.04,.46,1.26,.69,.22,.23,.33,.52,.33,.87Z"/></g><g><path class="cls-8" d="M127.77,481.31c0,1.17-.32,2.07-.95,2.69-.64,.62-1.55,.93-2.75,.93h-1.97v-7.1h2.18c1.1,0,1.96,.31,2.57,.92,.61,.61,.92,1.47,.92,2.57Zm-.87,.03c0-.93-.23-1.62-.7-2.09s-1.16-.71-2.07-.71h-1.2v5.67h1.01c.98,0,1.72-.24,2.22-.73,.5-.48,.74-1.2,.74-2.15Z"/><path class="cls-8" d="M131.31,485.03c-.79,0-1.41-.24-1.86-.72s-.68-1.14-.68-2,.21-1.54,.63-2.05c.42-.5,.99-.76,1.7-.76,.67,0,1.2,.22,1.58,.66,.39,.44,.58,1.02,.58,1.74v.51h-3.67c.02,.62,.17,1.1,.47,1.42,.3,.32,.72,.49,1.27,.49,.57,0,1.14-.12,1.7-.36v.72c-.29,.12-.55,.21-.81,.26-.25,.05-.56,.08-.92,.08Zm-.22-4.84c-.43,0-.77,.14-1.02,.42-.25,.28-.4,.66-.45,1.16h2.78c0-.51-.11-.9-.34-1.17-.23-.27-.55-.41-.97-.41Z"/><path class="cls-8" d="M136.9,479.51c.24,0,.45,.02,.64,.06l-.11,.75c-.22-.05-.41-.07-.58-.07-.43,0-.8,.18-1.1,.53-.31,.35-.46,.79-.46,1.31v2.86h-.81v-5.32h.67l.09,.99h.04c.2-.35,.44-.61,.71-.8,.28-.19,.58-.28,.92-.28Z"/><path class="cls-8" d="M140.62,485.03c-.79,0-1.41-.24-1.86-.72s-.68-1.14-.68-2,.21-1.54,.63-2.05c.42-.5,.99-.76,1.7-.76,.67,0,1.2,.22,1.58,.66,.39,.44,.58,1.02,.58,1.74v.51h-3.67c.02,.62,.17,1.1,.47,1.42,.3,.32,.72,.49,1.27,.49,.57,0,1.14-.12,1.7-.36v.72c-.29,.12-.55,.21-.81,.26-.25,.05-.56,.08-.92,.08Zm-.22-4.84c-.43,0-.77,.14-1.02,.42-.25,.28-.4,.66-.45,1.16h2.78c0-.51-.11-.9-.34-1.17-.23-.27-.55-.41-.97-.41Z"/><path class="cls-8" d="M145.91,485.03c-.77,0-1.37-.24-1.79-.71-.42-.47-.63-1.15-.63-2.01s.21-1.58,.64-2.06c.43-.49,1.04-.73,1.83-.73,.26,0,.51,.03,.77,.08s.46,.12,.6,.19l-.25,.68c-.18-.07-.37-.13-.58-.18s-.4-.07-.56-.07c-1.08,0-1.62,.69-1.62,2.07,0,.65,.13,1.16,.4,1.51s.65,.52,1.17,.52c.44,0,.9-.1,1.37-.29v.71c-.36,.18-.81,.28-1.35,.28Z"/><path class="cls-8" d="M151.99,484.93v-3.44c0-.43-.1-.76-.3-.97-.2-.21-.51-.32-.93-.32-.56,0-.97,.15-1.23,.46-.26,.3-.39,.8-.39,1.5v2.78h-.81v-7.56h.81v2.29c0,.27-.01,.5-.04,.68h.05c.16-.26,.38-.46,.68-.6,.29-.15,.63-.22,1-.22,.65,0,1.14,.16,1.46,.46,.33,.31,.49,.8,.49,1.47v3.47h-.81Z"/><path class="cls-8" d="M158.88,482.26c0,.87-.22,1.55-.66,2.03-.44,.49-1.04,.73-1.81,.73-.48,0-.9-.11-1.27-.33s-.65-.54-.85-.96c-.2-.42-.3-.91-.3-1.47,0-.87,.22-1.54,.65-2.03,.43-.48,1.04-.73,1.81-.73s1.34,.25,1.78,.74c.44,.5,.66,1.17,.66,2.01Zm-4.06,0c0,.68,.14,1.2,.41,1.55,.27,.36,.67,.53,1.2,.53s.93-.18,1.2-.53,.41-.87,.41-1.56-.14-1.19-.41-1.54c-.27-.35-.68-.53-1.21-.53s-.93,.17-1.2,.52c-.27,.35-.4,.86-.4,1.55Z"/><path class="cls-8" d="M163.56,483.48c0,.5-.18,.88-.55,1.15-.37,.27-.89,.4-1.55,.4-.71,0-1.26-.11-1.65-.33v-.75c.26,.13,.53,.23,.82,.31,.29,.07,.58,.11,.85,.11,.42,0,.75-.07,.97-.2,.23-.13,.34-.34,.34-.62,0-.21-.09-.38-.27-.53-.18-.15-.53-.32-1.05-.52-.5-.18-.85-.35-1.06-.48s-.36-.29-.47-.47c-.1-.17-.15-.38-.15-.63,0-.43,.18-.78,.53-1.03s.84-.38,1.45-.38c.57,0,1.13,.12,1.68,.35l-.29,.66c-.53-.22-1.02-.33-1.45-.33-.38,0-.67,.06-.86,.18-.2,.12-.29,.29-.29,.5,0,.14,.04,.26,.11,.36,.07,.1,.19,.2,.35,.29,.16,.09,.47,.22,.93,.39,.63,.23,1.06,.46,1.28,.69,.22,.23,.33,.53,.33,.88Z"/><path class="cls-8" d="M169.55,479.51c.24,0,.45,.02,.64,.06l-.11,.75c-.22-.05-.41-.07-.58-.07-.43,0-.8,.18-1.1,.53-.31,.35-.46,.79-.46,1.31v2.86h-.81v-5.32h.67l.09,.99h.04c.2-.35,.44-.61,.71-.8,.28-.19,.58-.28,.92-.28Z"/><path class="cls-8" d="M173.26,485.03c-.79,0-1.41-.24-1.86-.72s-.68-1.14-.68-2,.21-1.54,.63-2.05c.42-.5,.99-.76,1.7-.76,.67,0,1.2,.22,1.58,.66,.39,.44,.58,1.02,.58,1.74v.51h-3.67c.02,.62,.17,1.1,.47,1.42,.3,.32,.72,.49,1.27,.49,.57,0,1.14-.12,1.7-.36v.72c-.29,.12-.55,.21-.81,.26-.25,.05-.56,.08-.92,.08Zm-.22-4.84c-.43,0-.77,.14-1.02,.42-.25,.28-.4,.66-.45,1.16h2.78c0-.51-.11-.9-.34-1.17-.23-.27-.55-.41-.97-.41Z"/><path class="cls-8" d="M179.86,483.48c0,.5-.18,.88-.55,1.15-.37,.27-.89,.4-1.55,.4-.71,0-1.26-.11-1.65-.33v-.75c.26,.13,.53,.23,.82,.31,.29,.07,.58,.11,.85,.11,.42,0,.74-.07,.97-.2,.23-.13,.34-.34,.34-.62,0-.21-.09-.38-.27-.53-.18-.15-.53-.32-1.05-.52-.5-.18-.85-.35-1.06-.48s-.37-.29-.47-.47-.15-.38-.15-.63c0-.43,.18-.78,.53-1.03,.35-.25,.84-.38,1.45-.38,.57,0,1.13,.12,1.68,.35l-.29,.66c-.53-.22-1.02-.33-1.45-.33-.38,0-.67,.06-.87,.18s-.29,.29-.29,.5c0,.14,.04,.26,.11,.36,.07,.1,.19,.2,.35,.29s.47,.22,.93,.39c.63,.23,1.06,.46,1.28,.69,.22,.23,.33,.53,.33,.88Z"/><path class="cls-8" d="M183.25,485.03c-.79,0-1.41-.24-1.86-.72s-.68-1.14-.68-2,.21-1.54,.63-2.05c.42-.5,.99-.76,1.7-.76,.67,0,1.2,.22,1.58,.66,.39,.44,.58,1.02,.58,1.74v.51h-3.67c.02,.62,.17,1.1,.47,1.42,.3,.32,.72,.49,1.27,.49,.57,0,1.14-.12,1.7-.36v.72c-.29,.12-.55,.21-.81,.26-.25,.05-.56,.08-.92,.08Zm-.22-4.84c-.43,0-.77,.14-1.02,.42-.25,.28-.4,.66-.45,1.16h2.78c0-.51-.11-.9-.34-1.17-.23-.27-.55-.41-.97-.41Z"/><path class="cls-8" d="M188.84,479.51c.24,0,.45,.02,.64,.06l-.11,.75c-.22-.05-.41-.07-.58-.07-.43,0-.8,.18-1.1,.53-.31,.35-.46,.79-.46,1.31v2.86h-.81v-5.32h.67l.09,.99h.04c.2-.35,.44-.61,.71-.8,.28-.19,.58-.28,.92-.28Z"/><path class="cls-8" d="M191.47,484.93l-2.02-5.32h.86l1.15,3.16c.26,.74,.41,1.22,.46,1.44h.04c.04-.17,.15-.53,.34-1.07s.62-1.72,1.28-3.53h.87l-2.02,5.32h-.94Z"/><path class="cls-8" d="M198.39,484.93l-.16-.76h-.04c-.27,.33-.53,.56-.79,.68-.26,.12-.59,.18-.99,.18-.53,0-.94-.14-1.24-.41-.3-.27-.45-.66-.45-1.16,0-1.08,.86-1.64,2.58-1.69l.9-.03v-.33c0-.42-.09-.73-.27-.92s-.47-.3-.86-.3c-.44,0-.95,.14-1.51,.41l-.25-.62c.26-.14,.55-.25,.86-.33s.63-.12,.94-.12c.63,0,1.11,.14,1.41,.42,.31,.28,.46,.73,.46,1.36v3.63h-.6Zm-1.82-.57c.5,0,.9-.14,1.18-.41,.29-.28,.43-.66,.43-1.16v-.48l-.81,.03c-.64,.02-1.1,.12-1.39,.3-.28,.18-.42,.45-.42,.82,0,.29,.09,.51,.26,.67,.18,.15,.42,.23,.74,.23Z"/><path class="cls-8" d="M204.11,484.22h-.04c-.37,.54-.93,.81-1.67,.81-.7,0-1.24-.24-1.62-.71-.39-.48-.58-1.15-.58-2.03s.19-1.56,.58-2.04c.39-.49,.93-.73,1.62-.73s1.28,.26,1.66,.79h.06l-.04-.38-.02-.37v-2.17h.81v7.56h-.66l-.11-.71Zm-1.61,.14c.55,0,.95-.15,1.2-.45s.37-.78,.37-1.45v-.17c0-.75-.13-1.29-.38-1.62-.25-.32-.65-.48-1.2-.48-.47,0-.83,.18-1.09,.55-.25,.37-.38,.89-.38,1.56s.12,1.19,.38,1.54c.25,.35,.62,.52,1.1,.52Z"/><path class="cls-8" d="M211.01,482.26c0,.87-.22,1.55-.66,2.03-.44,.49-1.04,.73-1.81,.73-.48,0-.9-.11-1.27-.33s-.65-.54-.85-.96c-.2-.42-.3-.91-.3-1.47,0-.87,.22-1.54,.65-2.03,.43-.48,1.04-.73,1.81-.73s1.34,.25,1.78,.74c.44,.5,.66,1.17,.66,2.01Zm-4.06,0c0,.68,.14,1.2,.41,1.55,.27,.36,.67,.53,1.2,.53s.93-.18,1.2-.53,.41-.87,.41-1.56-.14-1.19-.41-1.54c-.27-.35-.68-.53-1.21-.53s-.93,.17-1.2,.52c-.27,.35-.4,.86-.4,1.55Z"/><path class="cls-8" d="M215.69,483.48c0,.5-.18,.88-.55,1.15-.37,.27-.89,.4-1.55,.4-.71,0-1.26-.11-1.65-.33v-.75c.26,.13,.53,.23,.82,.31,.29,.07,.58,.11,.85,.11,.42,0,.75-.07,.97-.2,.23-.13,.34-.34,.34-.62,0-.21-.09-.38-.27-.53-.18-.15-.53-.32-1.05-.52-.5-.18-.85-.35-1.06-.48s-.36-.29-.47-.47c-.1-.17-.15-.38-.15-.63,0-.43,.18-.78,.53-1.03s.84-.38,1.45-.38c.57,0,1.13,.12,1.68,.35l-.29,.66c-.53-.22-1.02-.33-1.45-.33-.38,0-.67,.06-.86,.18-.2,.12-.29,.29-.29,.5,0,.14,.04,.26,.11,.36,.07,.1,.19,.2,.35,.29,.16,.09,.47,.22,.93,.39,.63,.23,1.06,.46,1.28,.69,.22,.23,.33,.53,.33,.88Z"/><path class="cls-8" d="M223.54,484.93h-4.67v-.69l1.87-1.88c.57-.58,.95-.99,1.13-1.23s.32-.49,.41-.72c.09-.23,.14-.48,.14-.75,0-.38-.12-.68-.35-.9s-.55-.33-.96-.33c-.29,0-.57,.05-.84,.15-.26,.1-.56,.27-.88,.53l-.43-.55c.65-.54,1.37-.82,2.14-.82,.67,0,1.19,.17,1.57,.51,.38,.34,.57,.8,.57,1.38,0,.45-.13,.9-.38,1.34-.25,.44-.73,1-1.42,1.67l-1.55,1.52v.04h3.65v.75Z"/><path class="cls-8" d="M229.1,481.37c0,1.23-.19,2.14-.58,2.75-.39,.61-.98,.91-1.78,.91s-1.35-.31-1.74-.93-.6-1.53-.6-2.73,.19-2.16,.58-2.75c.39-.6,.97-.9,1.76-.9s1.36,.31,1.76,.94c.4,.62,.6,1.53,.6,2.72Zm-3.88,0c0,1.03,.12,1.79,.37,2.26,.24,.47,.63,.71,1.16,.71s.93-.24,1.17-.72c.24-.48,.36-1.23,.36-2.25s-.12-1.77-.36-2.24c-.24-.47-.63-.71-1.17-.71s-.92,.23-1.16,.7-.37,1.22-.37,2.25Z"/><path class="cls-8" d="M234.58,484.93h-4.67v-.69l1.87-1.88c.57-.58,.95-.99,1.13-1.23s.32-.49,.41-.72c.09-.23,.14-.48,.14-.75,0-.38-.12-.68-.35-.9s-.55-.33-.96-.33c-.29,0-.57,.05-.84,.15-.26,.1-.56,.27-.88,.53l-.43-.55c.65-.54,1.37-.82,2.14-.82,.67,0,1.19,.17,1.57,.51,.38,.34,.57,.8,.57,1.38,0,.45-.13,.9-.38,1.34-.25,.44-.73,1-1.42,1.67l-1.55,1.52v.04h3.65v.75Z"/><path class="cls-8" d="M240.1,484.93h-4.67v-.69l1.87-1.88c.57-.58,.95-.99,1.13-1.23,.18-.25,.32-.49,.41-.72,.09-.23,.13-.48,.13-.75,0-.38-.12-.68-.34-.9-.23-.22-.55-.33-.96-.33-.29,0-.57,.05-.84,.15-.27,.1-.56,.27-.88,.53l-.43-.55c.65-.54,1.37-.82,2.14-.82,.67,0,1.19,.17,1.57,.51,.38,.34,.57,.8,.57,1.38,0,.45-.13,.9-.38,1.34s-.72,1-1.42,1.67l-1.55,1.52v.04h3.65v.75Z"/><path class="cls-8" d="M112.9,489.77h2.01c.94,0,1.62,.14,2.04,.42,.42,.28,.63,.73,.63,1.34,0,.42-.12,.77-.35,1.04-.24,.27-.58,.45-1.03,.53v.05c1.08,.18,1.62,.75,1.62,1.7,0,.63-.21,1.13-.64,1.49-.43,.36-1.03,.53-1.8,.53h-2.48v-7.1Zm.83,3.04h1.36c.58,0,1-.09,1.26-.27,.26-.18,.38-.49,.38-.93,0-.4-.14-.69-.43-.86-.28-.18-.74-.26-1.36-.26h-1.21v2.33Zm0,.7v2.66h1.48c.57,0,1-.11,1.29-.33s.43-.57,.43-1.04c0-.44-.15-.76-.44-.97s-.75-.31-1.35-.31h-1.41Z"/><path class="cls-8" d="M122.33,496.87l-.16-.76h-.04c-.27,.33-.53,.56-.79,.68s-.59,.18-.99,.18c-.53,0-.94-.14-1.24-.41-.3-.27-.45-.66-.45-1.16,0-1.08,.86-1.64,2.58-1.69l.9-.03v-.33c0-.42-.09-.73-.27-.92s-.47-.3-.86-.3c-.44,0-.95,.14-1.51,.41l-.25-.62c.26-.14,.55-.25,.86-.33s.63-.12,.94-.12c.63,0,1.11,.14,1.41,.42,.31,.28,.46,.73,.46,1.36v3.63h-.6Zm-1.82-.57c.5,0,.9-.14,1.18-.41s.43-.66,.43-1.16v-.48l-.81,.03c-.64,.02-1.1,.12-1.39,.3-.28,.18-.42,.45-.42,.82,0,.29,.09,.51,.26,.67s.42,.23,.74,.23Z"/><path class="cls-8" d="M128.06,496.87v-3.44c0-.43-.1-.76-.3-.97-.2-.21-.51-.32-.93-.32-.56,0-.96,.15-1.22,.45-.26,.3-.39,.8-.39,1.49v2.79h-.81v-5.32h.66l.13,.73h.04c.17-.26,.4-.47,.7-.61,.3-.14,.63-.22,1-.22,.64,0,1.12,.16,1.45,.46,.32,.31,.49,.8,.49,1.48v3.47h-.81Z"/><path class="cls-8" d="M132.48,496.97c-.77,0-1.37-.24-1.79-.71s-.63-1.15-.63-2.01,.21-1.58,.64-2.06c.43-.49,1.04-.73,1.83-.73,.26,0,.51,.03,.77,.08s.46,.12,.6,.19l-.25,.68c-.18-.07-.37-.13-.58-.18-.21-.05-.4-.07-.56-.07-1.08,0-1.62,.69-1.62,2.07,0,.65,.13,1.16,.4,1.51,.26,.35,.66,.52,1.17,.52,.44,0,.9-.1,1.37-.29v.71c-.36,.18-.8,.28-1.35,.28Z"/><path class="cls-8" d="M139.52,494.2c0,.87-.22,1.55-.66,2.03s-1.04,.73-1.81,.73c-.48,0-.9-.11-1.27-.33s-.65-.54-.85-.96-.3-.91-.3-1.47c0-.87,.22-1.54,.65-2.03s1.04-.73,1.81-.73,1.34,.25,1.78,.74c.44,.5,.66,1.17,.66,2.01Zm-4.06,0c0,.68,.14,1.2,.41,1.55s.67,.53,1.2,.53,.93-.18,1.2-.53,.41-.87,.41-1.56-.14-1.19-.41-1.54c-.27-.35-.68-.53-1.21-.53s-.93,.17-1.2,.52-.4,.86-.4,1.55Z"/><path class="cls-8" d="M146.8,496.15h-.04c-.37,.54-.93,.81-1.67,.81-.7,0-1.24-.24-1.62-.71-.39-.48-.58-1.15-.58-2.03s.19-1.56,.58-2.04c.39-.49,.93-.73,1.62-.73s1.28,.26,1.66,.79h.06l-.03-.38-.02-.37v-2.17h.81v7.56h-.66l-.11-.71Zm-1.61,.14c.55,0,.95-.15,1.2-.45,.25-.3,.37-.78,.37-1.45v-.17c0-.75-.12-1.29-.38-1.62-.25-.32-.65-.48-1.2-.48-.47,0-.83,.18-1.08,.55-.25,.37-.38,.89-.38,1.56s.12,1.19,.37,1.54,.62,.52,1.1,.52Z"/><path class="cls-8" d="M151.35,496.97c-.79,0-1.41-.24-1.86-.72s-.68-1.14-.68-2,.21-1.54,.63-2.05c.42-.5,.99-.76,1.7-.76,.67,0,1.19,.22,1.58,.66,.39,.44,.58,1.02,.58,1.74v.51h-3.67c.02,.62,.17,1.1,.47,1.42,.3,.32,.72,.49,1.27,.49,.57,0,1.14-.12,1.7-.36v.72c-.29,.12-.55,.21-.81,.26-.25,.05-.56,.08-.92,.08Zm-.22-4.84c-.43,0-.77,.14-1.02,.42-.25,.28-.4,.66-.45,1.16h2.78c0-.51-.11-.9-.34-1.17s-.55-.41-.97-.41Z"/><path class="cls-8" d="M162.72,493.25c0,1.17-.32,2.07-.96,2.69s-1.55,.93-2.75,.93h-1.97v-7.1h2.18c1.11,0,1.96,.31,2.58,.92s.92,1.47,.92,2.57Zm-.88,.03c0-.93-.23-1.62-.7-2.09s-1.16-.71-2.07-.71h-1.2v5.67h1.01c.98,0,1.72-.24,2.22-.73,.5-.48,.74-1.2,.74-2.15Z"/><path class="cls-8" d="M166.27,496.97c-.79,0-1.41-.24-1.86-.72s-.68-1.14-.68-2,.21-1.54,.63-2.05c.42-.5,.99-.76,1.7-.76,.67,0,1.19,.22,1.58,.66,.39,.44,.58,1.02,.58,1.74v.51h-3.67c.02,.62,.17,1.1,.47,1.42,.3,.32,.72,.49,1.27,.49,.57,0,1.14-.12,1.7-.36v.72c-.29,.12-.55,.21-.81,.26-.25,.05-.56,.08-.92,.08Zm-.22-4.84c-.43,0-.77,.14-1.02,.42-.25,.28-.4,.66-.45,1.16h2.78c0-.51-.11-.9-.34-1.17s-.55-.41-.97-.41Z"/><path class="cls-8" d="M172.86,495.42c0,.5-.18,.88-.55,1.15-.37,.27-.89,.4-1.55,.4-.71,0-1.26-.11-1.65-.33v-.75c.26,.13,.53,.23,.82,.31,.29,.07,.58,.11,.85,.11,.42,0,.75-.07,.97-.2,.23-.13,.34-.34,.34-.62,0-.21-.09-.38-.27-.53-.18-.15-.53-.32-1.05-.52-.5-.18-.85-.35-1.06-.48s-.36-.29-.47-.47c-.1-.17-.15-.38-.15-.63,0-.43,.18-.78,.53-1.03s.84-.38,1.45-.38c.57,0,1.13,.12,1.68,.35l-.29,.66c-.53-.22-1.02-.33-1.45-.33-.38,0-.67,.06-.87,.18-.19,.12-.29,.29-.29,.5,0,.14,.04,.26,.11,.36,.07,.1,.19,.2,.35,.29s.47,.22,.93,.39c.63,.23,1.06,.46,1.28,.69,.22,.23,.33,.53,.33,.88Z"/><path class="cls-8" d="M177.28,496.87l-.16-.76h-.04c-.27,.33-.53,.56-.79,.68-.26,.12-.59,.18-.99,.18-.53,0-.94-.14-1.24-.41-.3-.27-.45-.66-.45-1.16,0-1.08,.86-1.64,2.58-1.69l.9-.03v-.33c0-.42-.09-.73-.27-.92s-.47-.3-.86-.3c-.44,0-.95,.14-1.51,.41l-.25-.62c.26-.14,.55-.25,.86-.33s.63-.12,.94-.12c.63,0,1.11,.14,1.41,.42,.31,.28,.46,.73,.46,1.36v3.63h-.6Zm-1.82-.57c.5,0,.9-.14,1.18-.41s.43-.66,.43-1.16v-.48l-.81,.03c-.64,.02-1.1,.12-1.39,.3-.28,.18-.43,.45-.43,.82,0,.29,.09,.51,.27,.67,.18,.15,.42,.23,.74,.23Z"/><path class="cls-8" d="M181.8,491.45c.24,0,.45,.02,.64,.06l-.11,.75c-.22-.05-.41-.07-.58-.07-.43,0-.8,.18-1.11,.53s-.46,.79-.46,1.31v2.86h-.81v-5.32h.67l.09,.99h.04c.2-.35,.44-.61,.71-.8s.58-.28,.92-.28Z"/><path class="cls-8" d="M185.69,491.45c.24,0,.45,.02,.64,.06l-.11,.75c-.22-.05-.41-.07-.58-.07-.43,0-.8,.18-1.1,.53-.31,.35-.46,.79-.46,1.31v2.86h-.81v-5.32h.67l.09,.99h.04c.2-.35,.44-.61,.71-.8,.28-.19,.58-.28,.92-.28Z"/><path class="cls-8" d="M191.75,494.2c0,.87-.22,1.55-.66,2.03-.44,.49-1.04,.73-1.81,.73-.48,0-.9-.11-1.27-.33s-.65-.54-.86-.96-.3-.91-.3-1.47c0-.87,.22-1.54,.65-2.03s1.04-.73,1.81-.73,1.34,.25,1.78,.74c.44,.5,.66,1.17,.66,2.01Zm-4.06,0c0,.68,.14,1.2,.41,1.55s.67,.53,1.2,.53,.93-.18,1.2-.53c.27-.35,.41-.87,.41-1.56s-.14-1.19-.41-1.54c-.27-.35-.68-.53-1.21-.53s-.93,.17-1.2,.52c-.27,.35-.4,.86-.4,1.55Z"/><path class="cls-8" d="M193.8,496.87h-.81v-7.56h.81v7.56Z"/><path class="cls-8" d="M196.15,496.87h-.81v-7.56h.81v7.56Z"/><path class="cls-8" d="M202.29,494.2c0,.87-.22,1.55-.66,2.03-.44,.49-1.04,.73-1.81,.73-.48,0-.9-.11-1.27-.33s-.65-.54-.86-.96-.3-.91-.3-1.47c0-.87,.22-1.54,.65-2.03s1.04-.73,1.81-.73,1.34,.25,1.78,.74c.44,.5,.66,1.17,.66,2.01Zm-4.06,0c0,.68,.14,1.2,.41,1.55s.67,.53,1.2,.53,.93-.18,1.2-.53c.27-.35,.41-.87,.41-1.56s-.14-1.19-.41-1.54c-.27-.35-.68-.53-1.21-.53s-.93,.17-1.2,.52c-.27,.35-.4,.86-.4,1.55Z"/><path class="cls-8" d="M206.89,493.91v2.95h-.83v-7.1h1.95c.87,0,1.51,.17,1.93,.5,.42,.33,.62,.84,.62,1.51,0,.94-.48,1.57-1.43,1.9l1.93,3.19h-.98l-1.72-2.95h-1.48Zm0-.71h1.13c.58,0,1.01-.12,1.28-.35,.27-.23,.41-.58,.41-1.04s-.14-.81-.42-1.01c-.28-.21-.72-.31-1.33-.31h-1.07v2.72Z"/><path class="cls-8" d="M212.69,491.54v3.45c0,.43,.1,.76,.3,.97s.51,.32,.93,.32c.56,0,.96-.15,1.22-.46,.26-.3,.39-.8,.39-1.49v-2.8h.81v5.32h-.67l-.12-.71h-.04c-.17,.26-.39,.46-.69,.6-.29,.14-.63,.21-1,.21-.65,0-1.13-.15-1.45-.46s-.48-.8-.48-1.48v-3.48h.82Z"/><path class="cls-8" d="M220.29,491.45c.24,0,.45,.02,.64,.06l-.11,.75c-.22-.05-.41-.07-.58-.07-.43,0-.8,.18-1.11,.53-.3,.35-.46,.79-.46,1.31v2.86h-.81v-5.32h.67l.09,.99h.04c.2-.35,.44-.61,.71-.8s.58-.28,.92-.28Z"/><path class="cls-8" d="M225.03,496.87l-.16-.76h-.04c-.27,.33-.53,.56-.79,.68s-.59,.18-.99,.18c-.53,0-.94-.14-1.24-.41-.3-.27-.45-.66-.45-1.16,0-1.08,.86-1.64,2.58-1.69l.9-.03v-.33c0-.42-.09-.73-.27-.92s-.47-.3-.86-.3c-.44,0-.95,.14-1.51,.41l-.25-.62c.26-.14,.55-.25,.86-.33s.62-.12,.94-.12c.63,0,1.11,.14,1.41,.42,.31,.28,.46,.73,.46,1.36v3.63h-.6Zm-1.82-.57c.5,0,.9-.14,1.18-.41s.43-.66,.43-1.16v-.48l-.81,.03c-.64,.02-1.1,.12-1.39,.3-.28,.18-.43,.45-.43,.82,0,.29,.09,.51,.27,.67s.42,.23,.74,.23Z"/><path class="cls-8" d="M227.93,496.87h-.81v-7.56h.81v7.56Z"/><path class="cls-8" d="M230.31,495.71l.07,.11c-.09,.32-.21,.7-.37,1.13s-.32,.83-.5,1.2h-.61c.09-.34,.19-.75,.29-1.25,.11-.5,.18-.89,.22-1.19h.88Z"/><path class="cls-8" d="M238.28,494.98c0,.62-.23,1.11-.68,1.46-.46,.35-1.07,.52-1.85,.52-.84,0-1.49-.11-1.94-.33v-.8c.29,.12,.61,.22,.95,.29s.68,.11,1.02,.11c.55,0,.96-.1,1.24-.31,.28-.21,.42-.5,.42-.87,0-.25-.05-.45-.15-.6s-.26-.3-.5-.43c-.23-.13-.58-.28-1.06-.45-.66-.24-1.13-.52-1.42-.84-.28-.32-.42-.75-.42-1.27s.21-.98,.62-1.31c.41-.32,.96-.49,1.63-.49s1.36,.13,1.95,.39l-.26,.72c-.59-.25-1.16-.37-1.71-.37-.44,0-.78,.09-1.02,.28-.25,.19-.37,.45-.37,.78,0,.25,.05,.45,.14,.61,.09,.16,.24,.3,.46,.43,.21,.13,.54,.28,.99,.44,.75,.27,1.26,.55,1.54,.85,.28,.3,.42,.7,.42,1.19Z"/><path class="cls-8" d="M239.33,496.35c0-.22,.05-.38,.15-.49,.1-.11,.24-.17,.42-.17s.34,.06,.44,.17c.11,.11,.16,.28,.16,.49s-.05,.37-.16,.49-.25,.17-.44,.17c-.16,0-.3-.05-.41-.15-.11-.1-.16-.27-.16-.5Z"/><path class="cls-8" d="M246.51,496.87l-.88-2.26h-2.85l-.87,2.26h-.84l2.81-7.13h.7l2.79,7.13h-.85Zm-1.14-3l-.83-2.2c-.11-.28-.22-.62-.33-1.02-.07,.31-.17,.65-.31,1.02l-.83,2.2h2.3Z"/><path class="cls-8" d="M247.93,496.35c0-.22,.05-.38,.15-.49,.1-.11,.24-.17,.42-.17s.34,.06,.44,.17c.11,.11,.16,.28,.16,.49s-.05,.37-.16,.49-.25,.17-.44,.17c-.16,0-.3-.05-.41-.15-.11-.1-.16-.27-.16-.5Z"/></g><rect class="cls-7" x="206.42" y="268.84" width="135.84" height="32.9" rx="2" ry="2"/><g><path class="cls-1" d="M262.89,280h2.29l-3.64,10.69h-2.47l-3.63-10.69h2.29l2.01,6.36c.11,.38,.23,.81,.35,1.31,.12,.5,.19,.85,.22,1.04,.05-.45,.24-1.23,.55-2.36l2.03-6.36Z"/><path class="cls-1" d="M272.2,290.69l-.78-2.54h-3.9l-.78,2.54h-2.44l3.77-10.74h2.77l3.79,10.74h-2.44Zm-1.32-4.45c-.72-2.31-1.12-3.61-1.21-3.91-.09-.3-.15-.54-.19-.72-.16,.62-.62,2.17-1.38,4.63h2.79Z"/><path class="cls-1" d="M275.12,290.69v-10.69h2.27v8.82h4.34v1.87h-6.61Z"/><path class="cls-1" d="M282.72,290.69v-10.69h2.27v10.69h-2.27Z"/><path class="cls-1" d="M295.68,285.24c0,1.76-.5,3.11-1.5,4.04s-2.45,1.4-4.34,1.4h-3.03v-10.69h3.36c1.75,0,3.1,.46,4.07,1.38,.97,.92,1.45,2.21,1.45,3.86Zm-2.36,.06c0-2.3-1.01-3.45-3.04-3.45h-1.21v6.96h.97c2.18,0,3.28-1.17,3.28-3.52Z"/><path class="cls-1" d="M303.57,290.69l-.78-2.54h-3.9l-.78,2.54h-2.44l3.77-10.74h2.77l3.79,10.74h-2.44Zm-1.32-4.45c-.72-2.31-1.12-3.61-1.21-3.91-.09-.3-.15-.54-.19-.72-.16,.62-.62,2.17-1.38,4.63h2.79Z"/><path class="cls-1" d="M308.76,286.59v4.1h-2.27v-10.69h3.12c1.45,0,2.53,.26,3.23,.79,.7,.53,1.05,1.33,1.05,2.41,0,.63-.17,1.19-.52,1.68s-.84,.87-1.47,1.15c1.61,2.4,2.66,3.96,3.15,4.66h-2.52l-2.55-4.1h-1.21Zm0-1.84h.73c.72,0,1.25-.12,1.59-.36,.34-.24,.51-.61,.51-1.13s-.17-.87-.52-1.08-.89-.32-1.62-.32h-.69v2.89Z"/></g><line class="cls-4" x1="236.16" y1="274.06" x2="236.16" y2="296.52"/><path class="cls-1" d="M218.1,282.42l1.05-1.04,3.89,3.91-3.89,3.91-1.05-1.04,2.85-2.86-2.85-2.86Zm6.3,2.86l-2.85,2.86,1.05,1.04,3.89-3.91-3.89-3.91-1.05,1.04,2.85,2.87Z"/><line class="cls-5" x1="63.07" y1="387.52" x2="298.93" y2="387.52"/><g><path class="cls-8" d="M129.46,425.62c0,.72-.26,1.28-.79,1.69-.52,.4-1.23,.61-2.13,.61-.97,0-1.72-.12-2.24-.38v-.92c.34,.14,.7,.25,1.1,.34s.79,.12,1.18,.12c.63,0,1.11-.12,1.44-.36,.32-.24,.48-.58,.48-1.01,0-.28-.06-.52-.17-.7-.11-.18-.3-.35-.57-.5-.27-.15-.67-.33-1.22-.52-.76-.27-1.31-.6-1.63-.97-.33-.37-.49-.86-.49-1.46,0-.63,.24-1.13,.71-1.51s1.1-.56,1.88-.56,1.56,.15,2.25,.45l-.3,.83c-.68-.28-1.33-.43-1.97-.43-.5,0-.9,.11-1.18,.33-.29,.22-.43,.52-.43,.9,0,.28,.05,.52,.16,.7,.1,.18,.28,.35,.53,.5,.25,.15,.63,.32,1.14,.5,.86,.31,1.45,.64,1.78,.99,.32,.35,.49,.81,.49,1.37Z"/><path class="cls-8" d="M130.72,419.99c0-.21,.05-.37,.16-.47,.1-.1,.24-.15,.39-.15s.28,.05,.39,.15c.11,.1,.16,.26,.16,.46s-.05,.37-.16,.47-.24,.15-.39,.15c-.16,0-.29-.05-.39-.15-.11-.1-.16-.26-.16-.47Zm1.01,7.81h-.93v-6.15h.93v6.15Z"/><path class="cls-8" d="M139.1,421.54c.27,0,.52,.02,.73,.07l-.13,.86c-.25-.06-.48-.08-.67-.08-.5,0-.92,.2-1.28,.61-.35,.4-.53,.91-.53,1.51v3.3h-.93v-6.15h.77l.11,1.14h.04c.23-.4,.5-.71,.82-.93,.32-.22,.68-.33,1.06-.33Z"/><path class="cls-8" d="M143.39,427.91c-.91,0-1.63-.28-2.15-.83s-.79-1.32-.79-2.31,.24-1.78,.73-2.36c.49-.58,1.14-.88,1.97-.88,.77,0,1.38,.25,1.83,.76,.45,.51,.67,1.17,.67,2v.59h-4.23c.02,.72,.2,1.27,.55,1.64,.35,.37,.83,.56,1.46,.56,.66,0,1.32-.14,1.96-.42v.83c-.33,.14-.64,.24-.93,.31-.29,.06-.65,.09-1.06,.09Zm-.25-5.59c-.49,0-.89,.16-1.18,.48-.29,.32-.47,.77-.52,1.33h3.21c0-.59-.13-1.04-.39-1.35-.26-.31-.64-.47-1.12-.47Z"/><path class="cls-8" d="M149.23,427.91c-.79,0-1.41-.28-1.86-.84-.45-.56-.67-1.33-.67-2.33s.22-1.79,.67-2.36c.45-.57,1.07-.85,1.87-.85,.84,0,1.49,.32,1.94,.95h.05l.13-.84h.73v8.91h-.93v-2.63c0-.37,.02-.69,.06-.95h-.07c-.43,.62-1.08,.94-1.94,.94Zm.14-.78c.62,0,1.07-.17,1.36-.5,.29-.33,.44-.89,.46-1.68v-.21c0-.86-.15-1.48-.44-1.86-.29-.38-.75-.57-1.39-.57-.55,0-.96,.21-1.25,.64-.29,.42-.44,1.02-.44,1.8s.14,1.36,.43,1.77c.29,.41,.71,.61,1.27,.61Z"/><path class="cls-8" d="M154.76,421.65v3.99c0,.5,.11,.88,.34,1.12,.23,.25,.58,.37,1.07,.37,.64,0,1.11-.18,1.41-.53,.3-.35,.45-.93,.45-1.72v-3.23h.93v6.15h-.77l-.13-.82h-.05c-.19,.3-.46,.53-.79,.7-.34,.16-.72,.24-1.16,.24-.75,0-1.31-.18-1.68-.53-.37-.35-.56-.92-.56-1.71v-4.02h.94Z"/><path class="cls-8" d="M160.66,419.99c0-.21,.05-.37,.16-.47,.11-.1,.24-.15,.39-.15s.28,.05,.39,.15c.11,.1,.16,.26,.16,.46s-.05,.37-.16,.47-.24,.15-.39,.15c-.16,0-.29-.05-.39-.15-.1-.1-.16-.26-.16-.47Zm1.01,7.81h-.93v-6.15h.93v6.15Z"/><path class="cls-8" d="M166.05,427.91c-.91,0-1.62-.28-2.15-.83s-.79-1.32-.79-2.31,.24-1.78,.73-2.36c.49-.58,1.14-.88,1.97-.88,.77,0,1.38,.25,1.83,.76,.45,.51,.67,1.17,.67,2v.59h-4.23c.02,.72,.2,1.27,.55,1.64,.35,.37,.83,.56,1.46,.56,.66,0,1.32-.14,1.96-.42v.83c-.33,.14-.64,.24-.93,.31s-.65,.09-1.06,.09Zm-.25-5.59c-.49,0-.89,.16-1.18,.48-.29,.32-.47,.77-.52,1.33h3.21c0-.59-.13-1.04-.39-1.35-.26-.31-.64-.47-1.12-.47Z"/><path class="cls-8" d="M172.51,421.54c.27,0,.52,.02,.74,.07l-.13,.86c-.25-.06-.48-.08-.67-.08-.5,0-.92,.2-1.28,.61-.35,.4-.53,.91-.53,1.51v3.3h-.93v-6.15h.77l.11,1.14h.04c.23-.4,.5-.71,.82-.93,.32-.22,.67-.33,1.06-.33Z"/><path class="cls-8" d="M176.79,427.91c-.91,0-1.63-.28-2.15-.83s-.79-1.32-.79-2.31,.24-1.78,.73-2.36c.49-.58,1.14-.88,1.96-.88,.77,0,1.38,.25,1.83,.76,.45,.51,.67,1.17,.67,2v.59h-4.23c.02,.72,.2,1.27,.55,1.64s.83,.56,1.46,.56c.66,0,1.32-.14,1.96-.42v.83c-.33,.14-.64,.24-.93,.31s-.65,.09-1.06,.09Zm-.25-5.59c-.49,0-.89,.16-1.18,.48-.29,.32-.47,.77-.52,1.33h3.21c0-.59-.13-1.04-.39-1.35-.26-.31-.64-.47-1.12-.47Z"/><path class="cls-8" d="M184.41,426.12c0,.57-.21,1.01-.64,1.32s-1.02,.47-1.79,.47c-.82,0-1.45-.13-1.91-.39v-.86c.3,.15,.61,.27,.95,.35s.66,.13,.98,.13c.49,0,.86-.08,1.12-.23s.39-.39,.39-.71c0-.24-.1-.44-.31-.61s-.61-.37-1.21-.6c-.57-.21-.98-.4-1.22-.56-.24-.16-.42-.34-.54-.54-.12-.2-.18-.44-.18-.72,0-.5,.2-.9,.61-1.19,.41-.29,.97-.43,1.68-.43,.66,0,1.31,.13,1.94,.4l-.33,.76c-.62-.25-1.18-.38-1.68-.38-.44,0-.77,.07-1,.21-.22,.14-.34,.33-.34,.57,0,.17,.04,.3,.13,.42,.08,.12,.22,.23,.41,.33,.19,.1,.55,.26,1.08,.45,.73,.27,1.22,.53,1.48,.8s.38,.61,.38,1.02Z"/><path class="cls-8" d="M192.3,427.8l-.19-.88h-.04c-.31,.38-.61,.65-.92,.78-.3,.14-.69,.21-1.14,.21-.61,0-1.09-.16-1.43-.47-.35-.31-.52-.76-.52-1.34,0-1.24,.99-1.89,2.98-1.95l1.04-.03v-.38c0-.48-.1-.84-.31-1.07-.21-.23-.54-.34-1-.34-.51,0-1.09,.16-1.74,.47l-.29-.71c.3-.17,.63-.29,1-.39,.36-.09,.72-.14,1.08-.14,.73,0,1.28,.16,1.63,.49,.35,.33,.53,.85,.53,1.56v4.2h-.69Zm-2.1-.66c.58,0,1.04-.16,1.37-.48,.33-.32,.5-.76,.5-1.33v-.56l-.93,.04c-.74,.03-1.27,.14-1.6,.34-.33,.2-.49,.52-.49,.95,0,.34,.1,.59,.31,.77,.2,.18,.49,.26,.86,.26Z"/><path class="cls-8" d="M198.68,426.12c0,.57-.21,1.01-.64,1.32s-1.02,.47-1.79,.47c-.81,0-1.45-.13-1.91-.39v-.86c.29,.15,.61,.27,.95,.35s.67,.13,.98,.13c.49,0,.86-.08,1.12-.23s.39-.39,.39-.71c0-.24-.1-.44-.31-.61s-.61-.37-1.21-.6c-.57-.21-.98-.4-1.22-.56-.24-.16-.42-.34-.54-.54s-.18-.44-.18-.72c0-.5,.2-.9,.61-1.19,.41-.29,.97-.43,1.68-.43,.66,0,1.31,.13,1.94,.4l-.33,.76c-.62-.25-1.18-.38-1.68-.38-.44,0-.77,.07-1,.21-.22,.14-.34,.33-.34,.57,0,.17,.04,.3,.13,.42,.08,.12,.22,.23,.41,.33,.19,.1,.54,.26,1.08,.45,.73,.27,1.22,.53,1.48,.8,.26,.27,.38,.61,.38,1.02Z"/><path class="cls-8" d="M199.92,419.99c0-.21,.05-.37,.16-.47,.1-.1,.24-.15,.39-.15,.15,0,.28,.05,.39,.15,.11,.1,.16,.26,.16,.46s-.05,.37-.16,.47c-.11,.1-.24,.15-.39,.15-.16,0-.29-.05-.39-.15-.11-.1-.16-.26-.16-.47Zm1.01,7.81h-.93v-6.15h.93v6.15Z"/><path class="cls-8" d="M206.67,426.12c0,.57-.21,1.01-.64,1.32s-1.02,.47-1.79,.47c-.81,0-1.45-.13-1.91-.39v-.86c.29,.15,.61,.27,.95,.35,.34,.09,.66,.13,.98,.13,.48,0,.86-.08,1.12-.23s.39-.39,.39-.71c0-.24-.1-.44-.31-.61-.21-.17-.61-.37-1.21-.6-.57-.21-.98-.4-1.22-.56-.24-.16-.42-.34-.54-.54-.12-.2-.18-.44-.18-.72,0-.5,.2-.9,.61-1.19,.41-.29,.97-.43,1.68-.43,.66,0,1.31,.13,1.94,.4l-.33,.76c-.62-.25-1.18-.38-1.68-.38-.44,0-.77,.07-1,.21-.22,.14-.34,.33-.34,.57,0,.17,.04,.3,.12,.42,.09,.12,.22,.23,.41,.33,.19,.1,.54,.26,1.08,.45,.73,.27,1.22,.53,1.48,.8s.38,.61,.38,1.02Z"/><path class="cls-8" d="M209.98,427.14c.16,0,.32-.01,.48-.04,.15-.02,.28-.05,.37-.08v.71c-.1,.05-.25,.09-.45,.12-.2,.03-.37,.05-.53,.05-1.19,0-1.78-.63-1.78-1.88v-3.66h-.88v-.45l.88-.39,.39-1.31h.54v1.42h1.79v.72h-1.79v3.62c0,.37,.09,.65,.26,.85s.42,.3,.72,.3Z"/><path class="cls-8" d="M214.45,427.91c-.91,0-1.63-.28-2.15-.83s-.79-1.32-.79-2.31,.24-1.78,.73-2.36c.49-.58,1.14-.88,1.96-.88,.77,0,1.38,.25,1.83,.76,.45,.51,.67,1.17,.67,2v.59h-4.23c.02,.72,.2,1.27,.55,1.64s.83,.56,1.46,.56c.66,0,1.32-.14,1.96-.42v.83c-.33,.14-.64,.24-.93,.31s-.65,.09-1.06,.09Zm-.25-5.59c-.49,0-.89,.16-1.18,.48-.29,.32-.47,.77-.52,1.33h3.21c0-.59-.13-1.04-.39-1.35-.26-.31-.64-.47-1.12-.47Z"/><path class="cls-8" d="M222.3,427.8v-3.98c0-.5-.11-.88-.34-1.12-.23-.25-.58-.37-1.07-.37-.64,0-1.12,.17-1.41,.52s-.45,.92-.45,1.72v3.22h-.93v-6.15h.76l.15,.84h.04c.19-.3,.46-.54,.8-.7,.34-.17,.73-.25,1.15-.25,.74,0,1.3,.18,1.67,.54s.56,.93,.56,1.71v4.01h-.93Z"/><path class="cls-8" d="M227.41,427.91c-.89,0-1.58-.27-2.07-.82-.49-.55-.73-1.32-.73-2.32s.25-1.82,.74-2.38,1.2-.84,2.12-.84c.29,0,.59,.03,.89,.1s.53,.14,.7,.22l-.29,.79c-.21-.08-.43-.15-.67-.21-.24-.05-.46-.08-.64-.08-1.25,0-1.88,.8-1.88,2.39,0,.76,.15,1.33,.46,1.74,.3,.4,.76,.61,1.36,.61,.51,0,1.04-.11,1.58-.33v.82c-.41,.21-.93,.32-1.55,.32Z"/><path class="cls-8" d="M230.15,419.99c0-.21,.05-.37,.16-.47,.1-.1,.23-.15,.39-.15,.15,0,.28,.05,.39,.15,.11,.1,.16,.26,.16,.46s-.05,.37-.16,.47-.24,.15-.39,.15c-.16,0-.29-.05-.39-.15-.11-.1-.16-.26-.16-.47Zm1.01,7.81h-.93v-6.15h.93v6.15Z"/><path class="cls-8" d="M236.72,427.8l-.19-.88h-.04c-.31,.38-.61,.65-.92,.78-.3,.14-.68,.21-1.14,.21-.61,0-1.09-.16-1.43-.47-.35-.31-.52-.76-.52-1.34,0-1.24,.99-1.89,2.98-1.95l1.04-.03v-.38c0-.48-.1-.84-.31-1.07-.21-.23-.54-.34-.99-.34-.51,0-1.09,.16-1.74,.47l-.29-.71c.3-.17,.63-.29,1-.39,.36-.09,.72-.14,1.08-.14,.73,0,1.28,.16,1.63,.49,.35,.33,.53,.85,.53,1.56v4.2h-.69Zm-2.1-.66c.58,0,1.04-.16,1.37-.48,.33-.32,.5-.76,.5-1.33v-.56l-.93,.04c-.74,.03-1.28,.14-1.6,.34-.33,.2-.49,.52-.49,.95,0,.34,.1,.59,.31,.77s.49,.26,.86,.26Z"/><path class="cls-8" d="M242.85,427.8h-.93v-8.73h.93v8.73Z"/><path class="cls-8" d="M245.56,427.8h-.93v-8.73h.93v8.73Z"/><path class="cls-8" d="M251.12,427.8l-.19-.88h-.04c-.31,.38-.61,.65-.92,.78-.3,.14-.69,.21-1.14,.21-.61,0-1.09-.16-1.43-.47-.35-.31-.52-.76-.52-1.34,0-1.24,.99-1.89,2.98-1.95l1.04-.03v-.38c0-.48-.1-.84-.31-1.07-.21-.23-.54-.34-1-.34-.51,0-1.09,.16-1.74,.47l-.29-.71c.3-.17,.63-.29,1-.39,.36-.09,.72-.14,1.09-.14,.73,0,1.28,.16,1.63,.49,.35,.33,.53,.85,.53,1.56v4.2h-.69Zm-2.1-.66c.58,0,1.04-.16,1.37-.48,.33-.32,.5-.76,.5-1.33v-.56l-.93,.04c-.74,.03-1.27,.14-1.6,.34-.33,.2-.49,.52-.49,.95,0,.34,.1,.59,.3,.77,.21,.18,.49,.26,.86,.26Z"/><path class="cls-8" d="M261.37,427.8v-4c0-.49-.1-.86-.31-1.1-.21-.24-.54-.37-.98-.37-.58,0-1.01,.17-1.29,.5-.28,.33-.41,.85-.41,1.54v3.43h-.93v-4c0-.49-.1-.86-.31-1.1-.21-.24-.54-.37-.98-.37-.58,0-1.01,.17-1.28,.52-.27,.35-.41,.92-.41,1.72v3.22h-.93v-6.15h.76l.15,.84h.04c.18-.3,.42-.53,.74-.7,.32-.17,.68-.25,1.07-.25,.96,0,1.59,.35,1.88,1.04h.04c.18-.32,.45-.58,.8-.76,.35-.19,.74-.28,1.19-.28,.7,0,1.21,.18,1.56,.54,.35,.36,.52,.93,.52,1.71v4.01h-.93Z"/><path class="cls-8" d="M267.8,427.8l-.19-.88h-.04c-.31,.38-.61,.65-.92,.78-.3,.14-.69,.21-1.14,.21-.61,0-1.09-.16-1.43-.47-.35-.31-.52-.76-.52-1.34,0-1.24,.99-1.89,2.98-1.95l1.04-.03v-.38c0-.48-.1-.84-.31-1.07-.21-.23-.54-.34-1-.34-.51,0-1.09,.16-1.74,.47l-.29-.71c.3-.17,.63-.29,1-.39,.36-.09,.72-.14,1.09-.14,.73,0,1.28,.16,1.63,.49,.35,.33,.53,.85,.53,1.56v4.2h-.69Zm-2.1-.66c.58,0,1.04-.16,1.37-.48,.33-.32,.5-.76,.5-1.33v-.56l-.93,.04c-.74,.03-1.27,.14-1.6,.34-.33,.2-.49,.52-.49,.95,0,.34,.1,.59,.3,.77,.21,.18,.49,.26,.86,.26Z"/><path class="cls-8" d="M276.78,427.8l-.19-.88h-.04c-.31,.38-.61,.65-.92,.78-.3,.14-.68,.21-1.14,.21-.61,0-1.09-.16-1.43-.47-.35-.31-.52-.76-.52-1.34,0-1.24,.99-1.89,2.98-1.95l1.04-.03v-.38c0-.48-.1-.84-.31-1.07-.21-.23-.54-.34-.99-.34-.51,0-1.09,.16-1.74,.47l-.29-.71c.3-.17,.63-.29,1-.39,.36-.09,.72-.14,1.08-.14,.73,0,1.28,.16,1.63,.49,.35,.33,.53,.85,.53,1.56v4.2h-.69Zm-2.1-.66c.58,0,1.04-.16,1.37-.48,.33-.32,.5-.76,.5-1.33v-.56l-.93,.04c-.74,.03-1.28,.14-1.6,.34-.33,.2-.49,.52-.49,.95,0,.34,.1,.59,.31,.77s.49,.26,.86,.26Z"/><path class="cls-8" d="M280.13,427.8h-.93v-8.73h.93v8.73Z"/></g><g><path class="cls-8" d="M125.06,443.16c0-.99,.14-1.92,.43-2.78,.29-.86,.71-1.62,1.25-2.27h.91c-.54,.72-.94,1.51-1.21,2.38-.27,.86-.41,1.75-.41,2.66s.14,1.77,.41,2.63c.28,.86,.68,1.64,1.2,2.34h-.9c-.55-.64-.97-1.38-1.26-2.23-.29-.85-.43-1.76-.43-2.74Z"/><path class="cls-8" d="M130.93,441.29c.86,0,1.54,.21,2.04,.64,.5,.43,.74,1.01,.74,1.76,0,.85-.27,1.51-.81,2-.54,.48-1.29,.72-2.24,.72s-1.63-.15-2.11-.44v-.9c.26,.17,.59,.3,.97,.4,.39,.1,.77,.14,1.15,.14,.66,0,1.17-.16,1.53-.47s.55-.76,.55-1.35c0-1.14-.7-1.72-2.1-1.72-.35,0-.83,.05-1.42,.16l-.48-.31,.31-3.84h4.08v.86h-3.28l-.21,2.46c.43-.09,.86-.13,1.28-.13Z"/><path class="cls-8" d="M140.17,442.19c0,1.42-.22,2.48-.67,3.17-.45,.7-1.13,1.05-2.05,1.05s-1.55-.36-2.01-1.07c-.46-.72-.69-1.77-.69-3.15s.22-2.49,.67-3.18c.45-.69,1.12-1.04,2.04-1.04s1.57,.36,2.03,1.08c.46,.72,.69,1.77,.69,3.13Zm-4.48,0c0,1.19,.14,2.06,.42,2.61,.28,.54,.73,.82,1.34,.82s1.07-.28,1.35-.83c.28-.55,.42-1.42,.42-2.59s-.14-2.04-.42-2.59c-.28-.55-.73-.82-1.35-.82s-1.06,.27-1.34,.81c-.28,.54-.42,1.41-.42,2.6Z"/><path class="cls-8" d="M146.5,446.3h-5.39v-.8l2.16-2.17c.66-.67,1.09-1.14,1.3-1.42,.21-.28,.37-.56,.47-.83s.16-.56,.16-.87c0-.44-.13-.78-.4-1.04-.27-.26-.63-.38-1.11-.38-.34,0-.66,.06-.97,.17-.3,.11-.64,.32-1.02,.61l-.49-.63c.76-.63,1.58-.94,2.47-.94,.77,0,1.37,.2,1.81,.59,.44,.39,.66,.92,.66,1.59,0,.52-.15,1.03-.44,1.54-.29,.51-.84,1.15-1.64,1.93l-1.79,1.76v.04h4.22v.86Z"/><path class="cls-8" d="M149.86,443.16c0,.98-.14,1.9-.43,2.75s-.71,1.59-1.25,2.22h-.9c.52-.7,.92-1.48,1.2-2.34,.28-.86,.41-1.74,.41-2.63s-.13-1.8-.41-2.66c-.27-.86-.68-1.66-1.21-2.38h.91c.55,.65,.97,1.41,1.26,2.28,.29,.87,.43,1.79,.43,2.77Z"/><path class="cls-8" d="M158.86,446.3h-5.39v-.8l2.16-2.17c.66-.67,1.09-1.14,1.3-1.42,.21-.28,.37-.56,.47-.83s.16-.56,.16-.87c0-.44-.13-.78-.4-1.04-.27-.26-.63-.38-1.11-.38-.34,0-.66,.06-.97,.17-.3,.11-.64,.32-1.02,.61l-.49-.63c.76-.63,1.58-.94,2.47-.94,.77,0,1.37,.2,1.81,.59,.44,.39,.66,.92,.66,1.59,0,.52-.15,1.03-.44,1.54-.29,.51-.84,1.15-1.64,1.93l-1.79,1.76v.04h4.22v.86Z"/><path class="cls-8" d="M165.62,444.42h-1.22v1.88h-.89v-1.88h-3.99v-.81l3.89-5.55h.99v5.51h1.22v.85Zm-2.11-.85v-2.73c0-.54,.02-1.14,.06-1.81h-.04c-.18,.36-.35,.66-.5,.89l-2.56,3.65h3.06Z"/><path class="cls-8" d="M171.61,441.6c0,3.21-1.24,4.81-3.72,4.81-.43,0-.78-.04-1.03-.11v-.8c.3,.1,.64,.15,1.02,.15,.9,0,1.58-.28,2.03-.83,.46-.55,.71-1.41,.75-2.55h-.07c-.21,.31-.48,.55-.82,.71-.34,.16-.72,.24-1.15,.24-.72,0-1.3-.22-1.73-.65-.43-.43-.64-1.04-.64-1.82,0-.85,.24-1.53,.71-2.02,.48-.49,1.11-.74,1.88-.74,.56,0,1.04,.14,1.46,.43,.42,.29,.74,.7,.96,1.25s.34,1.19,.34,1.94Zm-2.76-2.82c-.54,0-.95,.17-1.24,.52-.29,.34-.44,.82-.44,1.44,0,.54,.13,.96,.4,1.27s.68,.46,1.23,.46c.34,0,.65-.07,.94-.21,.29-.14,.51-.33,.68-.57s.25-.49,.25-.75c0-.39-.08-.75-.23-1.09-.15-.33-.37-.59-.64-.79-.28-.19-.59-.29-.95-.29Z"/><path class="cls-8" d="M175.31,437.99c.75,0,1.34,.17,1.78,.52s.66,.83,.66,1.44c0,.4-.12,.77-.38,1.1-.25,.33-.65,.64-1.2,.91,.67,.32,1.14,.65,1.42,1,.28,.35,.42,.75,.42,1.21,0,.68-.24,1.22-.71,1.63-.47,.41-1.12,.61-1.95,.61-.88,0-1.55-.19-2.02-.58-.47-.38-.71-.93-.71-1.63,0-.94,.57-1.67,1.72-2.19-.52-.29-.89-.61-1.11-.95-.22-.34-.34-.72-.34-1.14,0-.59,.22-1.07,.66-1.42s1.03-.53,1.76-.53Zm-1.77,6.25c0,.45,.16,.8,.47,1.05,.31,.25,.75,.38,1.32,.38s.99-.13,1.3-.39c.31-.26,.46-.62,.46-1.08,0-.36-.15-.69-.44-.97s-.8-.56-1.53-.82c-.56,.24-.96,.5-1.21,.79-.25,.29-.38,.64-.38,1.04Zm1.76-5.49c-.47,0-.83,.11-1.1,.34-.27,.22-.4,.52-.4,.9,0,.34,.11,.64,.33,.89s.63,.49,1.22,.74c.54-.22,.91-.47,1.13-.72s.33-.56,.33-.9c0-.38-.13-.68-.41-.9-.27-.22-.64-.33-1.12-.33Z"/><path class="cls-8" d="M178.87,443.65v-.85h2.75v.85h-2.75Z"/><path class="cls-8" d="M185.03,441.29c.87,0,1.54,.21,2.04,.64,.5,.43,.74,1.01,.74,1.76,0,.85-.27,1.51-.81,2-.54,.48-1.29,.72-2.24,.72s-1.63-.15-2.11-.44v-.9c.26,.17,.59,.3,.97,.4s.77,.14,1.15,.14c.66,0,1.17-.16,1.53-.47,.37-.31,.55-.76,.55-1.35,0-1.14-.7-1.72-2.1-1.72-.36,0-.83,.05-1.43,.16l-.48-.31,.31-3.84h4.08v.86h-3.28l-.21,2.46c.43-.09,.86-.13,1.28-.13Z"/><path class="cls-8" d="M191.55,437.99c.75,0,1.34,.17,1.78,.52s.66,.83,.66,1.44c0,.4-.12,.77-.38,1.1-.25,.33-.65,.64-1.2,.91,.67,.32,1.14,.65,1.42,1,.28,.35,.42,.75,.42,1.21,0,.68-.24,1.22-.71,1.63-.47,.41-1.12,.61-1.95,.61-.88,0-1.55-.19-2.02-.58-.47-.38-.71-.93-.71-1.63,0-.94,.57-1.67,1.72-2.19-.52-.29-.89-.61-1.11-.95-.22-.34-.34-.72-.34-1.14,0-.59,.22-1.07,.66-1.42s1.03-.53,1.76-.53Zm-1.77,6.25c0,.45,.16,.8,.47,1.05,.31,.25,.75,.38,1.32,.38s.99-.13,1.3-.39c.31-.26,.46-.62,.46-1.08,0-.36-.15-.69-.44-.97s-.8-.56-1.53-.82c-.56,.24-.96,.5-1.21,.79-.25,.29-.38,.64-.38,1.04Zm1.76-5.49c-.47,0-.83,.11-1.1,.34-.27,.22-.4,.52-.4,.9,0,.34,.11,.64,.33,.89s.63,.49,1.22,.74c.54-.22,.91-.47,1.13-.72s.33-.56,.33-.9c0-.38-.13-.68-.41-.9-.27-.22-.64-.33-1.12-.33Z"/><path class="cls-8" d="M197.93,437.99c.75,0,1.34,.17,1.78,.52s.66,.83,.66,1.44c0,.4-.13,.77-.38,1.1s-.65,.64-1.2,.91c.66,.32,1.14,.65,1.42,1,.28,.35,.42,.75,.42,1.21,0,.68-.24,1.22-.71,1.63-.47,.41-1.12,.61-1.95,.61-.88,0-1.55-.19-2.02-.58-.47-.38-.71-.93-.71-1.63,0-.94,.57-1.67,1.72-2.19-.52-.29-.89-.61-1.11-.95-.22-.34-.34-.72-.34-1.14,0-.59,.22-1.07,.66-1.42s1.03-.53,1.76-.53Zm-1.77,6.25c0,.45,.16,.8,.47,1.05,.31,.25,.75,.38,1.31,.38s.99-.13,1.3-.39c.31-.26,.47-.62,.47-1.08,0-.36-.15-.69-.44-.97-.29-.28-.8-.56-1.53-.82-.56,.24-.96,.5-1.21,.79-.25,.29-.38,.64-.38,1.04Zm1.76-5.49c-.47,0-.83,.11-1.1,.34-.27,.22-.4,.52-.4,.9,0,.34,.11,.64,.33,.89s.63,.49,1.22,.74c.54-.22,.91-.47,1.14-.72s.33-.56,.33-.9c0-.38-.14-.68-.41-.9-.27-.22-.64-.33-1.12-.33Z"/><path class="cls-8" d="M204.15,441.29c.86,0,1.54,.21,2.04,.64,.49,.43,.74,1.01,.74,1.76,0,.85-.27,1.51-.81,2-.54,.48-1.29,.72-2.23,.72s-1.63-.15-2.12-.44v-.9c.26,.17,.59,.3,.98,.4s.77,.14,1.15,.14c.66,0,1.17-.16,1.53-.47s.55-.76,.55-1.35c0-1.14-.7-1.72-2.1-1.72-.36,0-.83,.05-1.42,.16l-.48-.31,.31-3.84h4.08v.86h-3.28l-.21,2.46c.43-.09,.86-.13,1.29-.13Z"/></g><path class="cls-12" d="M82.79,421.92l2.94-2.57,7.59,8.02-2.79,2.55c-.2,1.69,4.78,6.77,6.17,6.47,.09-.1,2.73-2.52,2.73-2.52l7.68,8.05s-2.83,2.58-2.92,2.67c-8.14,7.04-29.21-15.16-21.39-22.66Zm2.75,.85l-1.05,.96c-5.36,5.15,12.39,23.87,18.06,18.97l1-.91-4.25-4.45-1.05,.96c-3.24,2.95-12.75-6.94-9.51-10.12l1.03-.95-4.23-4.47Zm12.03,6.41l3.79,.02c0-.97-.36-1.94-1.1-2.69-.74-.74-1.71-1.12-2.67-1.13l-.02,3.79Zm.04-7.87c2.02,.01,4.03,.79,5.56,2.34,1.53,1.55,2.29,3.57,2.28,5.58h-2.33c0-1.43-.53-2.85-1.6-3.94-1.07-1.09-2.49-1.64-3.91-1.64v-2.33Zm.04-4.14c3.07,.02,6.14,1.21,8.47,3.57,2.34,2.36,3.49,5.44,3.47,8.51h-2.39c.01-2.48-.91-4.94-2.78-6.83-1.87-1.89-4.33-2.84-6.79-2.86v-2.39Z"/><line class="cls-6" x1="115.2" y1="417.06" x2="115.2" y2="449.22"/><line class="cls-6" x1="47.16" y1="237.42" x2="47.16" y2="254.59"/></g></svg>